<svg xmlns="http://www.w3.org/2000/svg" viewBox="26 26 76 76">
    <defs>
        <linearGradient id="saberr-logo-gradient" x1="26" y1="30" x2="104" y2="100" gradientUnits="userSpaceOnUse">
            <stop offset="0" stop-color="#FF3D9E"/>
            <stop offset="1" stop-color="#B01E68"/>
        </linearGradient>
        <mask id="saberr-logo-cut">
            <path d="M46 26 L98 26 Q102 26 102 30 L102 82 Q102 102 82 102 L30 102 Q26 102 26 98 L26 46 Q26 26 46 26 Z"
                  fill="#fff"/>
            <line x1="100" y1="28" x2="28" y2="100" stroke="#000" stroke-width="7" stroke-linecap="round"/>
            <line x1="87" y1="36.7" x2="51" y2="72.7" stroke="#000" stroke-width="12" stroke-linecap="round"/>
            <line x1="77" y1="55.3" x2="41" y2="91.3" stroke="#000" stroke-width="12" stroke-linecap="round"/>
        </mask>
    </defs>
    <path d="M46 26 L98 26 Q102 26 102 30 L102 82 Q102 102 82 102 L30 102 Q26 102 26 98 L26 46 Q26 26 46 26 Z"
          fill="url(#saberr-logo-gradient)" mask="url(#saberr-logo-cut)"/>
    <line x1="85.925" y1="36.733" x2="50.735" y2="72.242" stroke="#FF74A9" stroke-width="3.5"
          stroke-linecap="round"/>
    <line x1="77.033" y1="55.958" x2="41.843" y2="91.467" stroke="#FF74A9" stroke-width="3.5"
          stroke-linecap="round"/>
</svg>